<?xml version="1.0" standalone="no"?><!DOCTYPE svg PUBLIC "-//W3C//DTD SVG 1.1//EN" "http://www.w3.org/Graphics/SVG/1.1/DTD/svg11.dtd"><svg t="1548037837391" class="icon" style="" viewBox="0 0 1024 1024" version="1.1" xmlns="http://www.w3.org/2000/svg" p-id="3076" xmlns:xlink="http://www.w3.org/1999/xlink" width="44" height="44"><defs><style type="text/css"></style></defs><path d="M896 0H351.9488a128 128 0 0 0-128 128H831.488a64.0512 64.0512 0 0 1 64.4608 63.6928V832a128 128 0 0 0 128-128V128a128 128 0 0 0-128-128z m-192 384H128V319.9488h576V384z m0 192H128V512h576v64z m-640-384A63.8976 63.8976 0 0 0 0 256v704.2048A63.8976 63.8976 0 0 0 63.8976 1024H768a63.8976 63.8976 0 0 0 63.8976-63.8976V256A63.8976 63.8976 0 0 0 768 192H63.8976z" fill="#000000" p-id="3077"></path></svg>