<svg xmlns="http://www.w3.org/2000/svg" viewBox="0 0 80 80"><defs><style>.cls-1{fill:#20a1e6;}.cls-2{fill:#fff;}</style></defs><title>成品盘点</title><g id="图层_2" data-name="图层 2"><g id="盘点"><circle class="cls-1" cx="40" cy="40" r="40"/><path class="cls-2" d="M25.16,20H54.84A5.17,5.17,0,0,1,60,25.16v6.23H56.09c-.27-2.15-1.42-3.77-2.8-3.77s-2.52,1.61-2.79,3.77H37c-.27-2.15-1.42-3.77-2.79-3.77s-2.52,1.62-2.79,3.77h-2c-.28-2.13-1.42-3.73-2.79-3.73s-2.5,1.6-2.78,3.73H20V25.16A5.17,5.17,0,0,1,25.16,20ZM60,33.29V46.63H56.05c-.26-2.18-1.41-3.81-2.8-3.81s-2.53,1.63-2.8,3.81H48.32c-.25-2.21-1.41-3.89-2.81-3.89s-2.56,1.68-2.8,3.89h-1.9c-.27-2.15-1.42-3.77-2.8-3.77s-2.52,1.61-2.79,3.77H20V33.29h3.82c.25,2.21,1.41,3.89,2.8,3.89s2.56-1.67,2.8-3.89h2c.25,2.19,1.41,3.85,2.8,3.85s2.55-1.66,2.8-3.85H50.49c.26,2.2,1.41,3.85,2.8,3.85s2.55-1.66,2.81-3.85Zm0,15.24v6.31A5.17,5.17,0,0,1,54.84,60H25.16A5.16,5.16,0,0,1,20,54.84V48.54H35.21c.26,2.19,1.41,3.85,2.8,3.85s2.55-1.66,2.8-3.85h1.91c.28,2.13,1.42,3.73,2.79,3.73s2.5-1.6,2.78-3.73h2.15c.26,2.17,1.42,3.81,2.8,3.81s2.53-1.63,2.8-3.81H60Z"/></g></g></svg>