<svg xmlns="http://www.w3.org/2000/svg" viewBox="0 0 80 80"><defs><style>.cls-1{fill:#20a1e6;}.cls-2{fill:#fff;}</style></defs><title>成品调价</title><g id="图层_2" data-name="图层 2"><g id="成品调价"><circle class="cls-1" cx="40" cy="40" r="40"/><path class="cls-2" d="M58.46,27.69V22.77A2.76,2.76,0,0,0,55.69,20H24.31a2.76,2.76,0,0,0-2.77,2.77v4.92A2.44,2.44,0,0,0,20,30.15V56.92A3.08,3.08,0,0,0,23.08,60H56.92A2.91,2.91,0,0,0,60,56.92V30.15A2.44,2.44,0,0,0,58.46,27.69ZM46.77,34.77,44,39.69h1.54a1.45,1.45,0,0,1,1.54,1.54,1.72,1.72,0,0,1-1.85,1.54H41.54v1.85h4a1.54,1.54,0,0,1,0,3.08h-4v5.23a1.54,1.54,0,0,1-3.08,0V47.69H34.77a1.54,1.54,0,0,1,0-3.08h4V42.77h-4a1.54,1.54,0,1,1,0-3.08H36l-2.77-4.92a1.62,1.62,0,0,1,.62-2.15c.92-.62,1.54,0,1.85.62l3.69,6.46h1.23l3.69-6.46a1.48,1.48,0,0,1,1.85-.62A1.9,1.9,0,0,1,46.77,34.77Zm8.62-7.69H24V24.31a1.45,1.45,0,0,1,1.54-1.54H53.85a1.45,1.45,0,0,1,1.54,1.54Z"/></g></g></svg>