<svg xmlns="http://www.w3.org/2000/svg" viewBox="0 0 80 80"><defs><style>.cls-1{fill:#20a1e6;}.cls-2{fill:#fff;}</style></defs><title>供应商管理</title><g id="图层_2" data-name="图层 2"><g id="供应商管理"><circle class="cls-1" cx="40" cy="40" r="40"/><path class="cls-2" d="M41.28,32.9H45.7v4.52H41.28Z"/><path class="cls-2" d="M60.36,37.38A20.36,20.36,0,1,0,26.14,52.31L23,57.69H29.2l3,5.32,3.3-5.72a20.49,20.49,0,0,0,9,0L47.8,63l3-5.32H57L53.88,52.3A20.34,20.34,0,0,0,60.36,37.38ZM33.13,25.13h2.33a39,39,0,0,1-2.86,6.38V48.07H30.53V34.9a29.36,29.36,0,0,1-2.86,4s0-2.29,0-3.75A56.15,56.15,0,0,0,33.13,25.13Zm-.89,34.31-1.5-2.63-.51-.9H26.1l1.41-2.44a20.3,20.3,0,0,0,6.26,3.32ZM34.63,37.5h4.54V33h-2.9V30.91h2.9V26.55h2.11v4.36H45.7V26.55h2.11v4.36h2.88V33H47.81V37.5h4.53v2.05H34.63ZM36.7,48.1c-.13-.06-1.64-1.51-1.77-1.58a33.9,33.9,0,0,0,5.73-5.66l1.86,1.3A54.58,54.58,0,0,1,36.7,48.1Zm7.54-5.93L46,40.7c1.3,1.1,4.57,4.34,6.11,5.77L50.4,48.1C48.84,46.48,46.65,44.36,44.25,42.17Zm9.68,13.75H49.79l-.51.9-1.5,2.63-1.53-2.65a20.32,20.32,0,0,0,6.25-3.32Z"/></g></g></svg>